<svg xmlns="http://www.w3.org/2000/svg" width="144.087" height="45.737" viewBox="0 0 144.087 45.737"><defs><style>.a{fill:#1fdad8;}.b{fill:#7a35ff;}.c{fill:#fff;}.d{isolation:isolate;}</style></defs><g transform="translate(-3416.882 9972.968)"><path class="a" d="M3416.882-9954.105v14.383a5.3,5.3,0,0,0,2.65,4.59l12.456,7.191a5.3,5.3,0,0,0,5.3,0l12.456-7.191a5.3,5.3,0,0,0,2.65-4.59v-14.383a5.3,5.3,0,0,0-2.65-4.59l-12.456-7.191a5.3,5.3,0,0,0-5.3,0l-12.456,7.191A5.3,5.3,0,0,0,3416.882-9954.105Z"/><path class="b" d="M3418.882-9958.7v16.428a6.05,6.05,0,0,0,3.026,5.241l14.224,8.212a6.047,6.047,0,0,0,6.052,0l14.224-8.212a6.051,6.051,0,0,0,3.027-5.241V-9958.7a6.052,6.052,0,0,0-3.027-5.241l-14.224-8.213a6.052,6.052,0,0,0-6.052,0l-14.224,8.213A6.051,6.051,0,0,0,3418.882-9958.7Z"/><path class="c" d="M3444.226-9946.019a1.165,1.165,0,0,1,1.494-.264l2.812,1.626a1.149,1.149,0,0,1,.454,1.56,1.138,1.138,0,0,1-.1.153,11.672,11.672,0,0,1-9.228,4.306,11.665,11.665,0,0,1-11.665-11.665,11.665,11.665,0,0,1,11.665-11.665,11.675,11.675,0,0,1,9.228,4.3,1.2,1.2,0,0,1-.234,1.681,1.006,1.006,0,0,1-.118.078l-2.812,1.581a1.16,1.16,0,0,1-1.494-.263,5.822,5.822,0,0,0-4.57-2.023c-3.736,0-6.064,2.857-6.064,6.328a6,6,0,0,0,5.666,6.317c.133.007.266.01.4.008A5.706,5.706,0,0,0,3444.226-9946.019Z"/><path class="c" d="M3436.691-9950.3a2.965,2.965,0,0,1,2.987-2.942,2.965,2.965,0,0,1,2.943,2.987,2.964,2.964,0,0,1-2.986,2.941A2.984,2.984,0,0,1,3436.691-9950.3Z"/><g class="d"><path class="b" d="M3477.924-9947.089a.529.529,0,0,1,.68-.119l1.28.739a.522.522,0,0,1,.16.779,5.311,5.311,0,0,1-4.2,1.962,5.261,5.261,0,0,1-5.361-5.3,5.264,5.264,0,0,1,5.361-5.32,5.313,5.313,0,0,1,4.2,1.96.546.546,0,0,1-.16.8l-1.28.721a.53.53,0,0,1-.68-.12,2.648,2.648,0,0,0-2.08-.92,2.722,2.722,0,0,0-2.762,2.88,2.733,2.733,0,0,0,2.762,2.881A2.6,2.6,0,0,0,3477.924-9947.089Z"/><path class="b" d="M3482.622-9957.971h1.121a.713.713,0,0,1,.7.72v12.563a.713.713,0,0,1-.7.721h-1.121a.717.717,0,0,1-.719-.721v-12.562A.717.717,0,0,1,3482.622-9957.971Z"/><path class="b" d="M3486.762-9956.95a1.358,1.358,0,0,1,1.34-1.36,1.362,1.362,0,0,1,1.361,1.36,1.362,1.362,0,0,1-1.361,1.36A1.358,1.358,0,0,1,3486.762-9956.95Zm.08,12.262v-8.7a.718.718,0,0,1,.721-.721h1.1a.717.717,0,0,1,.72.721v8.7a.717.717,0,0,1-.72.721h-1.1A.718.718,0,0,1,3486.842-9944.688Z"/><path class="b" d="M3500.984-9950.129v5.44a.718.718,0,0,1-.72.721h-1.1a.716.716,0,0,1-.719-.721v-4.921c0-1.3-.541-2.28-1.981-2.28a2.085,2.085,0,0,0-2.161,2.28v4.921a.713.713,0,0,1-.7.721h-1.12a.713.713,0,0,1-.7-.721v-8.7a.713.713,0,0,1,.7-.721h1.12a.713.713,0,0,1,.7.721v.52a3.377,3.377,0,0,1,2.961-1.479C3499.824-9954.35,3500.984-9952.29,3500.984-9950.129Z"/><path class="b" d="M3511.684-9954.11h1.1a.717.717,0,0,1,.72.721v8.7a.717.717,0,0,1-.72.721h-1.1a.718.718,0,0,1-.721-.721v-.479a3.823,3.823,0,0,1-3.24,1.44,5.039,5.039,0,0,1-4.941-5.3,5.044,5.044,0,0,1,4.941-5.32,3.822,3.822,0,0,1,3.24,1.439v-.479A.718.718,0,0,1,3511.684-9954.11Zm-.82,5.081a2.682,2.682,0,0,0-2.741-2.88,2.693,2.693,0,0,0-2.741,2.88,2.7,2.7,0,0,0,2.741,2.881A2.693,2.693,0,0,0,3510.864-9949.029Z"/></g><g class="d"><path class="a" d="M3518.542-9945.189a1.473,1.473,0,0,1-1.461,1.481,1.477,1.477,0,0,1-1.479-1.481,1.476,1.476,0,0,1,1.479-1.479A1.472,1.472,0,0,1,3518.542-9945.189Z"/><path class="a" d="M3527.483-9947.089a.529.529,0,0,1,.68-.119l1.281.739a.522.522,0,0,1,.16.779,5.313,5.313,0,0,1-4.2,1.962,5.262,5.262,0,0,1-5.362-5.3,5.265,5.265,0,0,1,5.362-5.32,5.315,5.315,0,0,1,4.2,1.96.547.547,0,0,1-.16.8l-1.281.721a.531.531,0,0,1-.68-.12,2.648,2.648,0,0,0-2.08-.92,2.721,2.721,0,0,0-2.761,2.88,2.733,2.733,0,0,0,2.761,2.881A2.6,2.6,0,0,0,3527.483-9947.089Z"/><path class="a" d="M3539.563-9954.11h1.1a.717.717,0,0,1,.72.721v8.7a.717.717,0,0,1-.72.721h-1.1a.717.717,0,0,1-.72-.721v-.479a3.824,3.824,0,0,1-3.241,1.44,5.038,5.038,0,0,1-4.94-5.3,5.043,5.043,0,0,1,4.94-5.32,3.823,3.823,0,0,1,3.241,1.439v-.479A.717.717,0,0,1,3539.563-9954.11Zm-.82,5.081a2.682,2.682,0,0,0-2.741-2.88,2.693,2.693,0,0,0-2.74,2.88,2.7,2.7,0,0,0,2.74,2.881A2.693,2.693,0,0,0,3538.743-9949.029Z"/><path class="a" d="M3549.1-9954.31a.53.53,0,0,1,.6.54v1.6a.538.538,0,0,1-.54.54c-2.5-.079-2.841,1.721-2.841,3.481v3.46a.713.713,0,0,1-.7.721H3544.5a.717.717,0,0,1-.719-.721v-8.7a.717.717,0,0,1,.719-.721h1.121a.713.713,0,0,1,.7.721v.92A4.077,4.077,0,0,1,3549.1-9954.31Z"/><path class="a" d="M3560.963-9948.749a.709.709,0,0,1-.7.7H3553.4a2.782,2.782,0,0,0,2.88,2.061,3.083,3.083,0,0,0,2-.72.513.513,0,0,1,.62-.061l1.139.681a.539.539,0,0,1,.1.84,5.448,5.448,0,0,1-3.861,1.521c-3.361,0-5.581-2.221-5.581-5.3a5.139,5.139,0,0,1,5.181-5.32C3558.762-9954.35,3561.1-9952.329,3560.963-9948.749Zm-2.52-1.26a2.379,2.379,0,0,0-2.521-2.081,2.522,2.522,0,0,0-2.52,2.081Z"/></g></g></svg>